<?xml version="1.0" encoding="utf-8"?>
<!-- Generator: Adobe Illustrator 19.2.1, SVG Export Plug-In . SVG Version: 6.00 Build 0)  -->
<svg version="1.1" id="layer" xmlns="http://www.w3.org/2000/svg" xmlns:xlink="http://www.w3.org/1999/xlink" x="0px" y="0px"
	 viewBox="0 0 652 652" style="enable-background:new 0 0 652 652;" xml:space="preserve">
<style type="text/css">
	.st0{fill:#00275D;}
	.st1{fill:#FFB031;}
</style>
<g>
	<g>
		<path class="st0" d="M255.4,489.7h3.1l4.7-4.5h-4L255.4,489.7z M418.6,490.6h2.9v13.5c0.5-1,1.3-1.9,2.3-2.4
			c1-0.6,2.1-0.9,3.4-0.9c2.1,0,3.6,0.6,4.8,1.9c1.1,1.3,1.7,3.1,1.7,5.5v10.5h-3v-10c0-1.8-0.3-3.1-1-4c-0.7-0.9-1.7-1.3-3.1-1.3
			c-1.5,0-2.8,0.5-3.6,1.5c-0.9,1-1.3,2.4-1.3,4.2v9.6h-2.9V490.6z M410.9,519.3c-2,0-3.4-0.5-4.3-1.6c-0.9-1-1.4-2.7-1.4-4.9v-8.9
			h-4v-2.5h4v-5h2.9v5h6.1v2.5h-6.1v8.6c0,1.5,0.3,2.5,0.8,3.2c0.5,0.7,1.4,1,2.5,1c1.1,0,2.3-0.3,3.4-0.9l0.3,2.5
			C414.1,518.9,412.6,519.3,410.9,519.3 M389.5,516.6c1.8,0,3.2-0.6,4.4-1.8c1.1-1.2,1.7-2.8,1.7-4.8c0-1.9-0.6-3.5-1.7-4.8
			c-1.1-1.2-2.6-1.8-4.4-1.8c-1.8,0-3.2,0.6-4.4,1.8c-1.1,1.2-1.7,2.8-1.7,4.8c0,1.9,0.6,3.5,1.7,4.8
			C386.2,516,387.7,516.6,389.5,516.6 M388.7,519.3c-1.6,0-3-0.4-4.2-1.1c-1.3-0.8-2.3-1.8-3-3.3c-0.7-1.4-1.1-3-1.1-4.8
			c0-1.6,0.4-3.1,1.1-4.5c0.7-1.4,1.8-2.5,3.1-3.4c1.3-0.9,2.8-1.3,4.5-1.3c1.3,0,2.5,0.3,3.6,1c1.1,0.6,2,1.6,2.7,2.7l0.1-3.2h2.9
			v17.4h-2.9l-0.1-3.2c-0.7,1.2-1.6,2.1-2.7,2.8C391.5,519,390.2,519.3,388.7,519.3 M373,501.4h3v17.4h-3V501.4z M374.4,496.7
			c-0.6,0-1.1-0.2-1.4-0.6c-0.4-0.4-0.6-0.9-0.6-1.5c0-0.6,0.2-1.1,0.6-1.5c0.4-0.4,0.9-0.6,1.4-0.6c0.6,0,1.1,0.2,1.4,0.6
			c0.4,0.4,0.6,0.9,0.6,1.5c0,0.6-0.2,1.1-0.6,1.5C375.5,496.5,375,496.7,374.4,496.7 M364.4,490.6h3v28.1h-3V490.6z M350.9,519.1
			c-2.6,0-4.9-0.5-7-1.6c-2.1-1.1-3.7-2.7-5-4.7c-1.2-2-1.8-4.4-1.8-7c0-2.6,0.6-4.9,1.7-7c1.2-2.1,2.8-3.7,5-4.9
			c2.1-1.2,4.6-1.8,7.4-1.8c1.4,0,2.8,0.2,4.3,0.6c1.5,0.4,2.7,0.9,3.8,1.6l-0.6,2.8c-1.6-0.8-2.9-1.3-4.2-1.7
			c-1.2-0.3-2.5-0.5-3.7-0.5c-2,0-3.8,0.4-5.4,1.3c-1.6,0.9-2.8,2.1-3.7,3.8c-0.9,1.6-1.4,3.5-1.4,5.7c0,2.1,0.4,4,1.3,5.6
			c0.8,1.6,2.1,2.9,3.7,3.8c1.6,0.9,3.5,1.4,5.7,1.4c1.2,0,2.6-0.2,4-0.5c1.4-0.3,2.8-0.8,4.2-1.5l0.3,2.8
			C356.8,518.4,354,519.1,350.9,519.1 M316,516.6c1.8,0,3.2-0.6,4.4-1.8c1.1-1.2,1.7-2.8,1.7-4.8c0-1.9-0.6-3.5-1.7-4.8
			c-1.1-1.2-2.6-1.8-4.4-1.8c-1.8,0-3.2,0.6-4.4,1.8c-1.1,1.2-1.7,2.8-1.7,4.8c0,1.9,0.6,3.5,1.7,4.8
			C312.7,516,314.2,516.6,316,516.6 M315.2,519.3c-1.6,0-3-0.4-4.2-1.1c-1.3-0.8-2.3-1.8-3-3.3c-0.7-1.4-1.1-3-1.1-4.8
			c0-1.6,0.4-3.1,1.1-4.5c0.7-1.4,1.8-2.5,3.1-3.4c1.3-0.9,2.8-1.3,4.5-1.3c1.3,0,2.5,0.3,3.6,1c1.1,0.6,2,1.6,2.7,2.7l0.1-3.2h2.9
			v17.4h-2.9l-0.1-3.2c-0.7,1.2-1.6,2.1-2.7,2.8C318,519,316.7,519.3,315.2,519.3 M287.5,490.6h2.9v13.5c0.5-1,1.3-1.9,2.3-2.4
			c1-0.6,2.1-0.9,3.4-0.9c2.1,0,3.6,0.6,4.8,1.9c1.1,1.3,1.7,3.1,1.7,5.5v10.5h-2.9v-10c0-1.8-0.3-3.1-1-4c-0.7-0.9-1.7-1.3-3.1-1.3
			c-1.5,0-2.8,0.5-3.6,1.5c-0.9,1-1.3,2.4-1.3,4.2v9.6h-2.9V490.6z M279.8,519.3c-2,0-3.4-0.5-4.3-1.6c-0.9-1-1.4-2.7-1.4-4.9v-8.9
			h-4v-2.5h4v-5h3v5h6.1v2.5H277v8.6c0,1.5,0.3,2.5,0.8,3.2c0.5,0.7,1.4,1,2.5,1c1.1,0,2.3-0.3,3.4-0.9l0.3,2.5
			C283,518.9,281.6,519.3,279.8,519.3 M263,508.1l-5-12.7l-5,12.7H263z M256.4,492.3h3.4l10.7,26.4h-3.4l-3.2-8h-12l-3.1,8h-3.2
			L256.4,492.3z M233,508.7c-0.1-1.7-0.6-3-1.5-3.9c-0.9-0.9-2.1-1.4-3.7-1.4c-1.5,0-2.7,0.5-3.7,1.4c-1,0.9-1.6,2.2-1.8,3.9H233z
			 M229,519.3c-3,0-5.3-0.8-7-2.5c-1.7-1.6-2.6-3.9-2.6-6.7c0-1.7,0.3-3.3,1.1-4.7c0.7-1.4,1.7-2.5,3-3.3c1.3-0.8,2.8-1.2,4.5-1.2
			c2.3,0,4.2,0.8,5.7,2.4c1.4,1.6,2.2,3.6,2.2,6.2c0,0.3,0,0.6,0,0.8c0,0.3,0,0.5,0,0.8h-13.5c0.2,1.8,0.9,3.2,2.1,4.2
			c1.2,1,2.8,1.5,4.8,1.5c2,0,4-0.5,6-1.4l0.3,2.5c-0.8,0.5-1.8,0.9-2.9,1.1C231.5,519.1,230.3,519.3,229,519.3 M212,490.6h3v28.1
			h-3V490.6z M203.4,501.4h3v17.4h-3V501.4z M204.9,496.7c-0.6,0-1.1-0.2-1.4-0.6c-0.4-0.4-0.6-0.9-0.6-1.5c0-0.6,0.2-1.1,0.6-1.5
			c0.4-0.4,0.9-0.6,1.4-0.6c0.6,0,1.1,0.2,1.4,0.6c0.4,0.4,0.6,0.9,0.6,1.5c0,0.6-0.2,1.1-0.6,1.5
			C205.9,496.5,205.5,496.7,204.9,496.7 M188.9,516.6c1.8,0,3.2-0.6,4.4-1.8c1.1-1.2,1.7-2.8,1.7-4.8c0-1.9-0.6-3.5-1.7-4.8
			c-1.1-1.2-2.6-1.8-4.4-1.8c-1.8,0-3.2,0.6-4.4,1.8c-1.1,1.2-1.7,2.8-1.7,4.8c0,1.9,0.6,3.5,1.7,4.8
			C185.7,516,187.2,516.6,188.9,516.6 M188.2,519.3c-1.6,0-3-0.4-4.2-1.1c-1.3-0.8-2.3-1.8-3-3.3c-0.7-1.4-1.1-3-1.1-4.8
			c0-1.6,0.4-3.1,1.1-4.5c0.7-1.4,1.8-2.5,3.1-3.4c1.3-0.9,2.8-1.3,4.5-1.3c1.3,0,2.5,0.3,3.6,1c1.1,0.6,2,1.6,2.7,2.7l0.1-3.2h2.9
			v17.4h-2.9l-0.1-3.2c-0.7,1.2-1.6,2.1-2.7,2.8C190.9,519,189.6,519.3,188.2,519.3 M160.5,490.6h2.9v13.5c0.5-1,1.3-1.9,2.3-2.4
			c1-0.6,2.1-0.9,3.4-0.9c2.1,0,3.6,0.6,4.8,1.9c1.1,1.3,1.7,3.1,1.7,5.5v10.5h-2.9v-10c0-1.8-0.3-3.1-1-4c-0.7-0.9-1.7-1.3-3.1-1.3
			c-1.6,0-2.8,0.5-3.6,1.5c-0.9,1-1.3,2.4-1.3,4.2v9.6h-2.9V490.6z M140.2,516.2h6.8c1.8,0,3.1-0.4,4.1-1.3c1-0.9,1.5-2.1,1.5-3.7
			c0-1.6-0.5-2.9-1.5-3.7s-2.5-1.2-4.5-1.2h-6.3V516.2z M140.2,503.7h5.7c1.9,0,3.2-0.4,4.1-1.1c0.9-0.8,1.3-1.9,1.3-3.5
			c0-1.3-0.4-2.3-1.3-3c-0.9-0.7-2.2-1.1-3.9-1.1h-5.8V503.7z M137.2,492.3h9.2c2.5,0,4.4,0.6,5.8,1.8c1.4,1.2,2.1,2.8,2.1,4.9
			c0,1.3-0.4,2.4-1.1,3.5c-0.7,1-1.7,1.7-3,2.2c1.7,0.3,3,1.1,4,2.3c1,1.2,1.5,2.6,1.5,4.2c0,2.4-0.8,4.2-2.4,5.6
			c-1.6,1.3-3.8,2-6.6,2h-9.6V492.3z M482.8,562.1l-7.5-15.9h3.2l5.8,12.7l5.6-12.7h3.1l-12,25.9H478L482.8,562.1z M469.7,564.1
			c-2,0-3.4-0.5-4.3-1.6c-0.9-1-1.4-2.7-1.4-4.9v-8.9h-4v-2.5h4v-5h3v5h6.1v2.5h-6.1v8.6c0,1.5,0.3,2.6,0.8,3.2c0.5,0.7,1.3,1,2.5,1
			c1.1,0,2.3-0.3,3.4-0.9l0.3,2.5C472.9,563.8,471.5,564.1,469.7,564.1 M454.2,546.2h3v17.4h-3V546.2z M455.6,541.5
			c-0.6,0-1.1-0.2-1.4-0.6c-0.4-0.4-0.6-0.9-0.6-1.5c0-0.6,0.2-1.1,0.6-1.5c0.4-0.4,0.9-0.6,1.4-0.6s1.1,0.2,1.4,0.6
			c0.4,0.4,0.6,0.9,0.6,1.5c0,0.6-0.2,1.1-0.6,1.5C456.7,541.4,456.2,541.5,455.6,541.5 M443,564.1c-1.1,0-2.2-0.1-3.2-0.4
			c-1.1-0.3-1.9-0.7-2.6-1.2l0.4-2.6c0.7,0.5,1.6,1,2.6,1.3c1,0.3,1.9,0.5,2.8,0.5c1.3,0,2.3-0.2,3-0.7c0.7-0.5,1.1-1.1,1.1-1.9
			c0-0.6-0.1-1-0.4-1.3c-0.2-0.3-0.7-0.6-1.2-0.9c-0.6-0.3-1.5-0.6-2.6-0.9c-1.9-0.6-3.3-1.3-4.2-2.1c-0.8-0.8-1.2-1.9-1.2-3.2
			c0-1.6,0.6-2.8,1.8-3.7c1.2-0.9,2.8-1.4,4.8-1.4c0.9,0,1.9,0.1,2.8,0.4c1,0.3,1.8,0.6,2.4,1l-0.5,2.5c-1.5-0.9-3.1-1.4-4.8-1.4
			c-1.2,0-2,0.2-2.7,0.6c-0.6,0.4-0.9,1-0.9,1.7c0,0.7,0.3,1.3,0.8,1.7c0.5,0.4,1.5,0.8,2.9,1.2c2.2,0.6,3.8,1.4,4.7,2.2
			c0.9,0.8,1.4,1.9,1.4,3.4c0,1.6-0.6,2.8-1.9,3.7C446.8,563.6,445.1,564.1,443,564.1 M424.9,546.2h2.8l0,3.6
			c0.5-1.2,1.2-2.2,2.1-2.8c0.9-0.7,2-1,3.2-1c0.3,0,0.7,0,1.1,0.1c0.4,0.1,0.7,0.2,0.9,0.3l-0.3,2.8c-0.7-0.3-1.4-0.4-2.1-0.4
			c-1.5,0-2.7,0.6-3.5,1.7c-0.8,1.1-1.3,2.7-1.3,4.6v8.5h-3V546.2z M417.3,553.5c-0.1-1.7-0.6-3-1.5-3.9c-0.9-0.9-2.1-1.4-3.7-1.4
			c-1.5,0-2.7,0.5-3.7,1.4c-1,0.9-1.6,2.2-1.8,3.9H417.3z M413.3,564.1c-3,0-5.3-0.8-7-2.5c-1.7-1.6-2.6-3.9-2.6-6.7
			c0-1.7,0.3-3.3,1.1-4.7c0.7-1.4,1.7-2.5,3-3.4c1.3-0.8,2.8-1.2,4.5-1.2c2.3,0,4.2,0.8,5.7,2.4c1.4,1.6,2.2,3.6,2.2,6.2
			c0,0.3,0,0.6,0,0.8c0,0.3,0,0.5,0,0.8h-13.5c0.2,1.8,0.9,3.2,2.1,4.2c1.2,1,2.8,1.5,4.8,1.5c2,0,4-0.5,6-1.4l0.3,2.5
			c-0.8,0.5-1.8,0.9-2.9,1.1C415.7,564,414.5,564.1,413.3,564.1 M385,546.2h3.2l5.5,14.1l5.5-14.1h3l-7.1,17.4h-2.9L385,546.2z
			 M378.8,546.2h3v17.4h-3V546.2z M380.3,541.5c-0.6,0-1.1-0.2-1.4-0.6c-0.4-0.4-0.6-0.9-0.6-1.5c0-0.6,0.2-1.1,0.6-1.5
			c0.4-0.4,0.9-0.6,1.4-0.6c0.6,0,1.1,0.2,1.4,0.6c0.4,0.4,0.6,0.9,0.6,1.5c0,0.6-0.2,1.1-0.6,1.5
			C381.3,541.4,380.9,541.5,380.3,541.5 M358.2,546.2h2.8l0,3c0.5-1.1,1.2-2,2.3-2.6c1-0.6,2.2-0.9,3.5-0.9c2.1,0,3.6,0.6,4.8,1.9
			c1.1,1.3,1.7,3.1,1.7,5.5v10.5h-2.9v-10c0-1.8-0.3-3.1-1-4c-0.7-0.9-1.7-1.3-3.1-1.3c-1.6,0-2.8,0.5-3.6,1.5
			c-0.9,1-1.3,2.4-1.3,4.2v9.6h-2.9V546.2z M341,564.1c-3.5,0-6.2-1-8.1-3c-1.9-2-2.9-4.8-2.9-8.4v-15.6h3.1v15.3
			c0,2.9,0.7,5.1,2,6.6c1.4,1.5,3.3,2.2,6,2.2c2.6,0,4.6-0.7,6-2.2c1.4-1.5,2-3.7,2-6.6v-15.3h3.1v15.6c0,3.6-1,6.4-3,8.4
			C347.3,563.1,344.5,564.1,341,564.1 M308.2,562.1l-7.5-15.9h3.2l5.8,12.7l5.6-12.7h3.1l-12,25.9h-3.1L308.2,562.1z M295.1,564.1
			c-2,0-3.4-0.5-4.3-1.6c-0.9-1-1.4-2.7-1.4-4.9v-8.9h-4v-2.5h4v-5h2.9v5h6.1v2.5h-6.1v8.6c0,1.5,0.3,2.6,0.8,3.2
			c0.5,0.7,1.4,1,2.5,1c1.1,0,2.3-0.3,3.4-0.9l0.3,2.5C298.4,563.8,296.9,564.1,295.1,564.1 M279.6,546.2h3v17.4h-3V546.2z
			 M281.1,541.5c-0.6,0-1.1-0.2-1.4-0.6c-0.4-0.4-0.6-0.9-0.6-1.5c0-0.6,0.2-1.1,0.6-1.5c0.4-0.4,0.9-0.6,1.4-0.6
			c0.6,0,1.1,0.2,1.4,0.6c0.4,0.4,0.6,0.9,0.6,1.5c0,0.6-0.2,1.1-0.6,1.5C282.1,541.4,281.7,541.5,281.1,541.5 M266.2,563.9
			c-2.6,0-4.9-0.5-7-1.6c-2.1-1.1-3.7-2.7-4.9-4.7c-1.2-2-1.8-4.4-1.8-7c0-2.6,0.6-4.9,1.7-7c1.2-2.1,2.8-3.7,5-5
			c2.2-1.2,4.6-1.8,7.4-1.8c1.4,0,2.8,0.2,4.3,0.6c1.5,0.4,2.7,0.9,3.8,1.6l-0.6,2.8c-1.5-0.8-2.9-1.3-4.1-1.7
			c-1.2-0.3-2.5-0.5-3.7-0.5c-2,0-3.8,0.4-5.4,1.3c-1.6,0.9-2.8,2.1-3.7,3.8c-0.9,1.6-1.4,3.5-1.4,5.7c0,2.1,0.4,4,1.3,5.6
			c0.8,1.6,2.1,2.9,3.7,3.8c1.6,0.9,3.5,1.4,5.7,1.4c1.2,0,2.6-0.2,4-0.5c1.4-0.3,2.8-0.8,4.2-1.5l0.3,2.8
			C272.1,563.3,269.2,563.9,266.2,563.9 M225.1,546.2h2.8l0,3c0.5-1.1,1.2-2,2.3-2.6c1-0.6,2.2-0.9,3.5-0.9c2.1,0,3.6,0.6,4.8,1.9
			c1.1,1.3,1.7,3.1,1.7,5.5v10.5h-2.9v-10c0-1.8-0.3-3.1-1-4c-0.7-0.9-1.7-1.3-3.1-1.3c-1.6,0-2.8,0.5-3.6,1.5
			c-0.9,1-1.3,2.4-1.3,4.2v9.6h-3V546.2z M216.5,546.2h3v17.4h-3V546.2z M218,541.5c-0.6,0-1.1-0.2-1.4-0.6
			c-0.4-0.4-0.6-0.9-0.6-1.5c0-0.6,0.2-1.1,0.6-1.5c0.4-0.4,0.9-0.6,1.4-0.6c0.6,0,1.1,0.2,1.4,0.6c0.4,0.4,0.6,0.9,0.6,1.5
			c0,0.6-0.2,1.1-0.6,1.5C219,541.4,218.5,541.5,218,541.5 M207.9,535.4h3v28.1h-3V535.4z M194.4,561.5c1.8,0,3.2-0.6,4.4-1.8
			c1.1-1.2,1.7-2.8,1.7-4.8s-0.6-3.5-1.7-4.8c-1.1-1.2-2.6-1.8-4.4-1.8c-1.8,0-3.2,0.6-4.4,1.8c-1.1,1.2-1.7,2.8-1.7,4.8
			s0.6,3.5,1.7,4.8C191.1,560.9,192.6,561.5,194.4,561.5 M194.8,564.1c-1.4,0-2.6-0.3-3.7-1c-1.1-0.6-2-1.6-2.6-2.7l-0.1,3.2h-2.9
			v-28.1h3v13.9c0.7-1.2,1.6-2.1,2.7-2.8c1.1-0.6,2.4-1,3.9-1c1.6,0,3,0.4,4.2,1.1c1.3,0.8,2.3,1.9,3,3.3c0.7,1.4,1.1,3,1.1,4.8
			c0,1.6-0.4,3.1-1.1,4.5c-0.7,1.4-1.8,2.5-3.1,3.4C197.9,563.7,196.4,564.1,194.8,564.1 M171.1,564.1c-2,0-3.5-0.6-4.5-1.8
			c-1.1-1.2-1.6-2.9-1.6-5.1v-11h2.9v10.2c0,1.8,0.3,3.1,1,3.9c0.6,0.8,1.7,1.2,3.2,1.2c1.5,0,2.7-0.5,3.6-1.5
			c0.9-1,1.3-2.4,1.3-4.2v-9.6h3v17.4h-2.8l-0.1-2.9c-0.5,1.1-1.2,2-2.3,2.6C173.7,563.8,172.5,564.1,171.1,564.1 M140.3,560.9h5.9
			c3.7,0,6.5-0.9,8.3-2.6c1.9-1.8,2.8-4.4,2.8-7.9c0-3.5-0.9-6.1-2.8-7.9c-1.9-1.8-4.6-2.6-8.3-2.6h-5.9V560.9z M137.2,537.2h9.6
			c2.8,0,5.2,0.5,7.3,1.6c2.1,1,3.7,2.5,4.8,4.5c1.1,2,1.7,4.3,1.7,7.1c0,4.2-1.3,7.5-3.8,9.8c-2.5,2.3-6.1,3.5-10.7,3.5h-8.9V537.2
			z M401.1,456.5h2.8l0,3.6c0.5-1.2,1.2-2.2,2.1-2.8c0.9-0.7,2-1,3.2-1c0.3,0,0.7,0,1.1,0.1c0.4,0.1,0.7,0.2,0.9,0.3l-0.3,2.8
			c-0.7-0.3-1.4-0.4-2.1-0.4c-1.5,0-2.7,0.6-3.5,1.7c-0.8,1.1-1.3,2.7-1.3,4.6v8.5h-3V456.5z M392.5,456.5h3v17.4h-3V456.5z
			 M394,451.9c-0.6,0-1.1-0.2-1.4-0.6c-0.4-0.4-0.6-0.9-0.6-1.5c0-0.6,0.2-1.1,0.6-1.5c0.4-0.4,0.9-0.6,1.4-0.6
			c0.6,0,1.1,0.2,1.4,0.6c0.4,0.4,0.6,0.9,0.6,1.5c0,0.6-0.2,1.1-0.6,1.5C395,451.7,394.5,451.9,394,451.9 M378,471.8
			c1.8,0,3.2-0.6,4.4-1.8c1.1-1.2,1.7-2.8,1.7-4.8c0-1.9-0.6-3.5-1.7-4.8c-1.1-1.2-2.6-1.8-4.4-1.8c-1.8,0-3.2,0.6-4.4,1.8
			c-1.1,1.2-1.7,2.8-1.7,4.8c0,1.9,0.6,3.5,1.7,4.8C374.8,471.2,376.2,471.8,378,471.8 M377.3,474.4c-1.6,0-3-0.4-4.2-1.1
			c-1.3-0.8-2.3-1.9-3-3.3c-0.7-1.4-1.1-3-1.1-4.8c0-1.6,0.4-3.1,1.1-4.5c0.7-1.4,1.8-2.5,3.1-3.4c1.3-0.9,2.8-1.3,4.5-1.3
			c1.3,0,2.5,0.3,3.6,1c1.1,0.6,2,1.6,2.7,2.7l0.1-3.2h2.9v17.4H384l-0.1-3.2c-0.7,1.2-1.6,2.1-2.7,2.8
			C380,474.1,378.7,474.4,377.3,474.4 M349.5,445.8h3v13.5c0.5-1,1.3-1.8,2.3-2.4c1-0.6,2.1-0.9,3.4-0.9c2.1,0,3.6,0.6,4.8,1.9
			c1.1,1.3,1.7,3.1,1.7,5.5v10.5h-2.9v-10c0-1.8-0.3-3.1-1-4c-0.7-0.9-1.7-1.3-3.1-1.3c-1.6,0-2.8,0.5-3.6,1.5
			c-0.9,1-1.3,2.4-1.3,4.2v9.6h-3V445.8z M341.8,474.4c-2,0-3.4-0.5-4.3-1.6c-0.9-1.1-1.4-2.7-1.4-4.9v-8.9h-4v-2.5h4v-5h3v5h6.1
			v2.5h-6.1v8.6c0,1.5,0.3,2.6,0.8,3.2c0.5,0.7,1.4,1,2.5,1c1.1,0,2.3-0.3,3.4-0.9l0.3,2.5C345.1,474.1,343.6,474.4,341.8,474.4
			 M320.5,471.8c1.8,0,3.2-0.6,4.4-1.8c1.1-1.2,1.7-2.8,1.7-4.8c0-1.9-0.6-3.5-1.7-4.8c-1.1-1.2-2.6-1.8-4.4-1.8
			c-1.8,0-3.2,0.6-4.4,1.8c-1.1,1.2-1.7,2.8-1.7,4.8c0,1.9,0.6,3.5,1.7,4.8C317.2,471.2,318.7,471.8,320.5,471.8 M319.7,474.4
			c-1.5,0-3-0.4-4.2-1.1c-1.3-0.8-2.3-1.9-3-3.3c-0.7-1.4-1.1-3-1.1-4.8c0-1.6,0.4-3.1,1.1-4.5c0.7-1.4,1.8-2.5,3.1-3.4
			c1.3-0.9,2.8-1.3,4.5-1.3c1.3,0,2.5,0.3,3.6,1c1.1,0.6,2,1.6,2.7,2.7l0.1-3.2h2.9v17.4h-2.9l-0.1-3.2c-0.7,1.2-1.6,2.1-2.7,2.8
			C322.4,474.1,321.1,474.4,319.7,474.4 M292,445.8h3v13.5c0.5-1,1.3-1.8,2.3-2.4c1-0.6,2.1-0.9,3.4-0.9c2.1,0,3.6,0.6,4.8,1.9
			c1.1,1.3,1.7,3.1,1.7,5.5v10.5h-3v-10c0-1.8-0.3-3.1-1-4c-0.7-0.9-1.7-1.3-3.1-1.3c-1.5,0-2.8,0.5-3.6,1.5c-0.9,1-1.3,2.4-1.3,4.2
			v9.6h-3V445.8z M278.5,474.3c-2.6,0-4.9-0.5-7-1.6c-2.1-1.1-3.7-2.7-4.9-4.7c-1.2-2-1.8-4.4-1.8-7c0-2.6,0.6-4.9,1.7-7
			c1.2-2.1,2.8-3.7,5-4.9c2.2-1.2,4.6-1.8,7.4-1.8c1.4,0,2.8,0.2,4.3,0.6c1.5,0.4,2.7,0.9,3.8,1.6l-0.6,2.8
			c-1.5-0.8-2.9-1.3-4.1-1.7c-1.2-0.3-2.5-0.5-3.7-0.5c-2,0-3.8,0.4-5.4,1.3c-1.6,0.9-2.8,2.1-3.7,3.8c-0.9,1.6-1.4,3.5-1.4,5.7
			c0,2.1,0.4,4,1.3,5.6c0.8,1.6,2.1,2.9,3.7,3.8c1.6,0.9,3.5,1.4,5.7,1.4c1.2,0,2.6-0.2,4-0.5c1.4-0.3,2.8-0.8,4.2-1.5l0.3,2.8
			C284.5,473.6,281.6,474.3,278.5,474.3 M249.5,445.8h3v28.1h-3V445.8z M240.8,456.5h3v17.4h-3V456.5z M242.3,451.9
			c-0.6,0-1.1-0.2-1.4-0.6c-0.4-0.4-0.6-0.9-0.6-1.5c0-0.6,0.2-1.1,0.6-1.5c0.4-0.4,0.9-0.6,1.4-0.6s1.1,0.2,1.4,0.6
			c0.4,0.4,0.6,0.9,0.6,1.5c0,0.6-0.2,1.1-0.6,1.5C243.4,451.7,242.9,451.9,242.3,451.9 M227.3,471.8c1.8,0,3.2-0.6,4.4-1.8
			c1.1-1.2,1.7-2.8,1.7-4.8c0-1.9-0.6-3.5-1.7-4.8c-1.1-1.2-2.6-1.8-4.4-1.8c-1.8,0-3.2,0.6-4.4,1.8c-1.1,1.2-1.7,2.8-1.7,4.8
			c0,1.9,0.6,3.5,1.7,4.8C224.1,471.2,225.5,471.8,227.3,471.8 M227.3,474.4c-1.7,0-3.2-0.4-4.6-1.2c-1.4-0.8-2.5-1.9-3.3-3.3
			c-0.8-1.4-1.2-3-1.2-4.8c0-1.6,0.4-3.2,1.2-4.6c0.8-1.4,1.9-2.5,3.2-3.4c1.4-0.9,3-1.3,4.7-1.3c1.7,0,3.2,0.4,4.6,1.2
			c1.4,0.8,2.5,1.9,3.3,3.3c0.8,1.4,1.2,3,1.2,4.8c0,1.6-0.4,3.2-1.2,4.6c-0.8,1.4-1.9,2.5-3.2,3.4C230.6,474,229,474.4,227.3,474.4
			 M209.5,474.3c-1.9,0-3.5-0.4-4.9-1.1c-1.4-0.7-2.5-1.8-3.3-3.1c-0.8-1.4-1.2-3-1.2-4.8c0-1.8,0.4-3.4,1.1-4.8
			c0.8-1.4,1.9-2.5,3.3-3.3c1.4-0.8,3.1-1.2,5-1.2c0.9,0,1.8,0.1,2.7,0.3c0.9,0.2,1.7,0.5,2.4,0.9l-0.4,2.5
			c-0.7-0.3-1.4-0.6-2.3-0.8c-0.9-0.2-1.7-0.3-2.4-0.3c-1.9,0-3.5,0.6-4.6,1.8c-1.2,1.2-1.8,2.7-1.8,4.7c0,2,0.6,3.6,1.8,4.8
			c1.2,1.2,2.8,1.7,4.8,1.7c1.5,0,3.2-0.4,4.9-1.1l0.3,2.5c-0.7,0.4-1.6,0.7-2.5,1C211.5,474.2,210.5,474.3,209.5,474.3
			 M190.1,474.4c-1.1,0-2.2-0.1-3.2-0.4c-1.1-0.3-1.9-0.7-2.6-1.2l0.4-2.6c0.7,0.5,1.6,1,2.6,1.3s1.9,0.5,2.8,0.5
			c1.3,0,2.3-0.2,3-0.7c0.7-0.4,1.1-1.1,1.1-1.9c0-0.6-0.1-1-0.4-1.3c-0.2-0.3-0.7-0.6-1.2-0.9c-0.6-0.3-1.5-0.6-2.6-0.9
			c-1.9-0.6-3.3-1.3-4.2-2.1c-0.8-0.8-1.2-1.9-1.2-3.2c0-1.6,0.6-2.8,1.8-3.7c1.2-0.9,2.8-1.4,4.8-1.4c0.9,0,1.9,0.1,2.8,0.4
			c1,0.3,1.8,0.6,2.4,1l-0.5,2.5c-1.5-0.9-3.1-1.4-4.8-1.4c-1.2,0-2,0.2-2.7,0.6c-0.6,0.4-0.9,1-0.9,1.7c0,0.7,0.3,1.3,0.8,1.7
			c0.5,0.4,1.5,0.8,2.9,1.2c2.2,0.6,3.8,1.4,4.7,2.2c0.9,0.8,1.4,1.9,1.4,3.3c0,1.6-0.6,2.8-1.9,3.8
			C194,474,192.2,474.4,190.1,474.4 M177.3,445.8h3v28.1h-3V445.8z M168.7,445.8h3v28.1h-3V445.8z M150.7,471.6
			c1.9,0,3.6-0.4,5.2-1.4c1.6-0.9,2.8-2.2,3.7-3.8c0.9-1.7,1.4-3.6,1.4-5.7c0-2-0.4-3.8-1.3-5.5c-0.8-1.7-2-3-3.6-3.9
			c-1.6-1-3.3-1.5-5.4-1.5c-1.9,0-3.6,0.4-5.2,1.4c-1.6,0.9-2.8,2.2-3.7,3.8c-0.9,1.7-1.4,3.6-1.4,5.7c0,2,0.4,3.8,1.3,5.5
			c0.8,1.7,2,3,3.6,3.9C146.9,471.1,148.7,471.6,150.7,471.6 M150.7,474.4c-2.4,0-4.7-0.6-6.7-1.7c-2-1.2-3.7-2.8-4.9-4.9
			c-1.2-2.1-1.9-4.5-1.9-7.1c0-2.5,0.6-4.7,1.7-6.8c1.1-2.1,2.8-3.8,4.8-5c2.1-1.3,4.4-1.9,7-1.9c2.4,0,4.7,0.6,6.7,1.7
			c2,1.2,3.7,2.8,4.9,4.9c1.2,2.1,1.9,4.5,1.9,7.1c0,2.5-0.6,4.7-1.7,6.8c-1.1,2.1-2.8,3.8-4.8,5
			C155.6,473.8,153.3,474.4,150.7,474.4"/>
		<path class="st0" d="M163.6,298.2v97.1h14c24.1,0,42-11.7,42-52.1c0-32.6-14.8-45.1-39.6-45.1H163.6z M137.2,288.1h59.1
			c37.3,1.6,52.1,27.2,52.1,55.2c0,38.9-27.2,62.2-62.9,62.2h-48.2V288.1z M370.7,386.4c-9.4,6.1-22.7,12.1-36.7,12.1
			c-24.1-2.3-37.4-22.6-37.4-50.6c0-25.7,10.9-52.9,39.7-52.9c11.1,0,28.1,6,34.4,12v-13.3c-8.6-5.4-22.7-8.7-34.4-8.7
			c-37.4,0-68.5,20.2-68.5,65.4c0,35.8,28,58.4,64.6,58.4c11.7,0,23.8-2.6,38.2-9.5L370.7,386.4z M500.1,286v63.5
			c-0.8,19.4-0.8,37.3-18.7,49.7c-9.3,7-22.3,9.3-34,9.3c-20.2,0-44.9-6.2-51.1-28.7c-1.6-7-2.3-14.8-2.3-21.8v-52.5l25.6-19.3v50.9
			c0,9.3,0,23.3,1.6,32.6c1.6,8.6,2.3,14,8.5,19.4c5.4,5.4,13.8,7.8,21.6,7.8c15.5,0,25.5-6.2,31.7-21c3.1-7.8,3.1-27.2,3.1-35.7
			v-45.3L500.1,286z"/>
		<path class="st1" d="M227.4,159.8c-58.2,26.9-112.2,61.2-153,95.5l0.2,0.3l0.7,0.8c39.4-32.1,91.7-62.9,146.5-87.7
			c138-63.3,267.3-78.1,288.3-33.1c10.7,24.3-10.6,62.4-59.3,104l1.2,1.5c45.8-37.1,70.9-71.1,70.9-97.3c0-5.3-1-10.3-3.1-14.9v0
			C497.8,82.1,366.7,95.9,227.4,159.8"/>
		<path class="st1" d="M242.8,167.5c-27.9,12.4-52.8,27.5-76,41.4l0.8,1.5c20.3-11.1,37.5-19,53.3-26.3
			c110.2-50.5,213.2-62.2,229.8-26.2c12.2,25.8-24,72.1-92.9,117.3l1,1.6c74.7-43.4,120.4-90,120.4-121.8c0-4.4-0.9-8.5-2.6-12.2
			c-3.5-7.7-10.6-13.5-21.1-17.4C414.6,110.4,329.2,127.3,242.8,167.5"/>
		<path class="st1" d="M318.7,102.5l0.6,2c39.5-11.8,72.2-19.2,100-23.4c71.4-10.8,115.9-2.3,128.5,24.6c5.9,11.7,6.1,25.1,0.7,41.2
			C534.8,187.2,487,238.3,417.4,287c-6.9,5.4-76.4,51.5-107.1,66.7l0.8,2.1c27.8-13.2,57.2-29,87.2-47l25.4-16.2
			c91.7-60,145.3-121,145.3-162.7c0-7.1-1.5-13.6-4.7-19.4C538.7,62.1,449.3,59.5,318.7,102.5"/>
	</g>
</g>
</svg>
